<?xml version="1.0" standalone="no"?>
<!DOCTYPE svg PUBLIC "-//W3C//DTD SVG 20010904//EN"
 "http://www.w3.org/TR/2001/REC-SVG-20010904/DTD/svg10.dtd">
<svg version="1.0" xmlns="http://www.w3.org/2000/svg"
 width="512.000000pt" height="512.000000pt" viewBox="0 0 512.000000 512.000000"
 preserveAspectRatio="xMidYMid meet">
<metadata>
Created by potrace 1.14, written by Peter Selinger 2001-2017
</metadata>
<g transform="translate(0.000000,512.000000) scale(0.100000,-0.100000)"
fill="#000000" stroke="none">
<path d="M1290 4630 l0 -160 -480 0 -480 0 0 -320 0 -320 -160 0 -160 0 0
-955 0 -955 320 0 320 0 0 -160 0 -160 800 0 800 0 0 -160 0 -160 -160 0 -160
0 0 -160 0 -160 -160 0 -160 0 0 -320 0 -320 -160 0 -160 0 0 -160 0 -160
1275 0 1275 0 0 160 0 160 -160 0 -160 0 0 320 0 320 -160 0 -160 0 0 160 0
160 -160 0 -160 0 0 160 0 160 800 0 800 0 0 160 0 160 320 0 320 0 0 955 0
955 -160 0 -160 0 0 320 0 320 -477 2 -478 3 -3 158 -3 157 -1274 0 -1275 0 0
-160z"/>
</g>
</svg>
